<svg width="70" height="70" viewBox="0 0 70 70" fill="none" xmlns="http://www.w3.org/2000/svg">
<circle cx="35" cy="35" r="35" fill="#EBEBEB"/>
<path d="M34.2667 42.7037C33.8324 42.7037 33.3981 42.5437 33.0552 42.2009C32.3924 41.538 32.3924 40.4409 33.0552 39.778L37.6952 35.138L33.0552 30.498C32.3924 29.8353 32.3924 28.7381 33.0552 28.0753C33.7181 27.4124 34.8152 27.4124 35.4781 28.0753L41.3295 33.9266C41.9924 34.5895 41.9924 35.6866 41.3295 36.3495L35.4781 42.2009C35.1581 42.5437 34.701 42.7037 34.2667 42.7037Z" fill="white"/>
<path d="M39.96 36.8514H16.7143C15.7771 36.8514 15 36.0743 15 35.1371C15 34.2 15.7771 33.4229 16.7143 33.4229H39.96C40.8971 33.4229 41.6743 34.2 41.6743 35.1371C41.6743 36.0743 40.8971 36.8514 39.96 36.8514Z" fill="white"/>
<path d="M34.9999 55C34.0628 55 33.2856 54.2229 33.2856 53.2857C33.2856 52.3486 34.0628 51.5714 34.9999 51.5714C44.7599 51.5714 51.5714 44.76 51.5714 35C51.5714 25.24 44.7599 18.4286 34.9999 18.4286C34.0628 18.4286 33.2856 17.6514 33.2856 16.7143C33.2856 15.7771 34.0628 15 34.9999 15C46.7714 15 54.9999 23.2286 54.9999 35C54.9999 46.7714 46.7714 55 34.9999 55Z" fill="white"/>
</svg>
